<?xml version="1.0" encoding="UTF-8" standalone="no"?>
<!-- Created with Inkscape (http://www.inkscape.org/) -->

<svg
   width="55.473228mm"
   height="49.194225mm"
   viewBox="0 0 55.473228 49.194225"
   version="1.1"
   id="svg1"
   xml:space="preserve"
   xmlns="http://www.w3.org/2000/svg"
   xmlns:svg="http://www.w3.org/2000/svg"><defs
     id="defs1" /><g
     id="layer1"
     transform="translate(-221.17132,-9.9018209)"><path
       style="fill:#ffffff;stroke-width:0.264583"
       d="m 276.60621,9.9171724 -37.04355,-0.015351 -0.69083,0.2763296 -0.55266,0.429847 -0.4759,0.506605 -0.16887,0.291681 -0.19957,0.521956 -0.0768,0.583364 0.0307,15.581933 -1.96502,0.245629 -1.10532,0.184219 -1.79614,0.598715 -1.70403,0.782934 -0.99786,0.521956 -0.76758,0.491255 -0.98251,0.660119 -0.79829,0.62942 -0.87504,0.813636 -0.56801,0.568013 -0.81364,0.936451 -0.56801,0.721529 -0.53731,0.875043 -0.59872,0.967155 -0.52195,1.089967 -0.49125,1.136023 -0.4145,1.013211 -0.32238,1.105318 -0.42985,1.949662 v 3.208496 l 7.66843,-0.01236 -0.0543,12.516117 46.40625,-0.03256 -0.0593,-26.019037 1.51215,-0.0077 V 9.9094998 Z"
       id="path1" /></g></svg>
