<?xml version="1.0" encoding="UTF-8" standalone="no"?>
<svg
   version="1.1"
   id="svg1"
   width="267"
   height="78"
   viewBox="0 0 267 78"
   xmlns="http://www.w3.org/2000/svg">
  <path
       style="fill:#FFFFFF"
       d="m 201.11637,61.05647 c 2.0562,-2.781154 2.11205,-3.346581 1.01241,-10.25 -0.79651,-5.000436 -0.85183,-8.377155 -0.17528,-10.698842 1.10611,-3.795798 0.53968,-5.510856 -1.55465,-4.707186 -2.57029,0.986313 -1.4373,-0.946515 1.61002,-2.746611 2.92504,-1.727861 3.09222,-1.71804 6,0.352486 3.50353,2.494736 3.44318,2.21884 1.36472,6.238141 -1.23617,2.390477 -1.48282,4.682923 -1.02795,9.554035 0.70227,7.520383 -0.78108,11.341083 -5.31291,13.68458 -4.11829,2.129653 -4.39391,1.92447 -1.91636,-1.426603 z M 25.492876,56.19817 C 21.929235,54.278473 9.0836144,54.110204 4.5478603,55.923805 1.6554612,57.080318 1.6316086,57.064549 3.3691634,55.144573 4.344557,54.066775 7.3605199,52.23082 10.071303,51.064672 12.782086,49.898524 15,48.709566 15,48.422542 15,46.245921 11.300718,41.696358 7.8649721,39.647526 L 3.7194471,37.175433 9.3597236,33.992258 C 13.501528,31.654768 14.995932,30.236679 14.984687,28.654542 14.958206,24.928519 13.351786,23.545455 9.0505207,23.545455 6.8227343,23.545455 5,23.399765 5,23.221701 5,22.4272 12.190968,20 14.544804,20 c 1.562447,0 3.805953,1.196911 5.592804,2.983762 l 2.983761,2.983761 5.787976,-2.921761 5.787976,-2.92176 4.651339,4.722348 C 41.906897,27.443642 44,29.861948 44,30.220364 c 0,0.358417 -1.8,1.663323 -4,2.899792 -2.2,1.236469 -3.998706,2.502763 -3.997125,2.813985 0.0016,0.311222 1.326022,1.452345 2.943202,2.535828 1.61718,1.083483 4.463532,4.683483 6.325226,8 1.861695,3.316517 3.912254,5.917531 4.556798,5.780031 2.161457,-0.461101 1.166057,1.229928 -2.045077,3.474266 -2.986741,2.087506 -3.295954,2.121514 -5.029017,0.553113 C 41.738375,55.358245 39.48251,51.932851 37.740973,48.665393 35.54728,44.549605 33.644524,42.333517 31.547177,41.451649 29.882127,40.751548 28.177855,40.39008 27.759906,40.648386 27.341958,40.906692 27,43.081578 27,45.481465 c 0,4.095423 0.213774,4.433983 3.48045,5.512083 1.914247,0.631758 3.939247,0.865099 4.5,0.518535 1.90074,-1.174723 1.032326,0.656389 -1.23045,2.594487 -4.123327,3.531686 -5.116698,3.783315 -8.257124,2.0916 z M 26,37.916667 C 26,29.4955 25.699756,26.932939 24.75,27.248021 23.87878,27.537048 23.413992,30.895568 23.216168,38.331354 22.975545,47.375879 23.165837,49 24.466168,49 25.75235,49 26,47.210503 26,37.916667 Z M 14.666449,33.333116 c -0.272336,-0.272336 -1.509218,0.04755 -2.748626,0.710864 L 9.6643536,35.25 12.082177,36.555023 c 2.172777,1.172759 2.45135,1.100713 2.748626,-0.710864 0.181941,-1.108738 0.107982,-2.238707 -0.164354,-2.511043 z M 32.75,35.754495 C 35.0875,34.516411 37,33.256488 37,32.954665 37,31.548215 29.05294,24.849247 28.090267,25.444212 26.880003,26.192196 26.560122,37.998371 27.75,38.002778 c 0.4125,0.0015 2.6625,-1.0102 5,-2.248283 z M 135,55.327996 c -3.025,-1.20744 -5.455,-2.675192 -5.4,-3.261671 0.055,-0.586479 0.1675,-4.586109 0.25,-8.888068 l 0.15,-7.821743 5.1117,-2.310202 c 4.88348,-2.207055 5.2645,-2.237338 8.53393,-0.678256 C 145.52785,33.265625 147.72759,34 148.53393,34 149.72429,34 150,35.880628 150,44 c 0,7.492925 -0.32305,10 -1.28856,10 -0.70871,0 -2.84621,0.792752 -4.75,1.761671 -3.3612,1.710653 -3.62072,1.698094 -8.96144,-0.433675 z m 9,-10.160215 v -7.832219 l -3.41469,-1.047999 c -3.08738,-0.947544 -3.46949,-0.84381 -3.98635,1.082219 -0.31441,1.17162 -0.5778,4.514441 -0.58531,7.428492 -0.013,5.026196 0.15324,5.370813 3.23635,6.710858 1.7875,0.776921 3.5875,1.430198 4,1.451726 0.4125,0.02153 0.75,-3.485356 0.75,-7.793077 z m 14.41699,10.288903 c -1.60434,-1.311617 -2.33697,-2.400941 -1.62806,-2.420721 0.97367,-0.02717 1.21826,-2.176169 1,-8.785963 -0.22089,-6.689502 -0.60536,-8.68377 -1.63268,-8.46875 -2.1984,0.460131 -0.81696,-1.811837 2.19516,-3.610242 2.73273,-1.631592 2.8505,-1.606694 4.99251,1.055509 l 2.19376,2.726517 3.98116,-2.445308 c 5.04728,-3.100139 6.25356,-3.101355 7.66311,-0.0077 1.42897,3.136242 2.13425,3.123344 6.38218,-0.11671 3.25173,-2.480221 3.55848,-2.53297 5.88088,-1.011278 1.34761,0.882987 3.14878,1.337361 4.00259,1.009721 1.69999,-0.652347 2.16294,1.122901 0.5524,2.118267 -0.55,0.339919 -1,4.38348 -1,8.985693 0,7.154278 0.25219,8.416227 1.73916,8.702591 1.38065,0.265888 1.07963,0.80456 -1.46023,2.613097 l -3.19938,2.278165 -2.03978,-2.039773 C 186.31138,54.311383 186,52.721118 186,45.622445 c 0,-9.554106 -1.12803,-11.621922 -4.89908,-8.980578 -2.09033,1.464123 -2.24067,2.224788 -1.9726,9.980809 0.25682,7.430591 0.0619,8.5558 -1.69547,9.786696 -1.69699,1.188621 -2.26457,1.186849 -3.90435,-0.01219 -1.69359,-1.238378 -1.88665,-2.504722 -1.64541,-10.792742 0.3016,-10.361956 -0.41246,-11.79805 -4.52607,-9.102708 -2.45334,1.607491 -2.54114,2.002946 -2.20603,9.936326 0.3138,7.428586 0.13884,8.420672 -1.734,9.832797 -1.9318,1.456581 -2.29475,1.397481 -5,-0.814167 z M 220.5,56.146311 216.5,54.5 l 0.5,-9.444832 0.5,-9.444831 4.68327,-2.405914 4.68328,-2.405913 4.06672,3.26811 c 2.2367,1.79746 4.06673,3.579084 4.06673,3.959165 0,0.38008 -2.475,2.334363 -5.5,4.34285 -4.57027,3.03449 -5.5,4.14376 -5.5,6.562124 0,2.407713 0.50797,3.0219 2.94135,3.556359 1.61774,0.355316 3.86774,0.150238 5,-0.455729 C 233.07361,51.425423 234,51.286242 234,51.722098 c 0,0.679105 -8.70537,6.464298 -9.29076,6.174213 -0.11508,-0.05703 -2.00924,-0.844529 -4.20924,-1.75 z m 9.23957,-15.666553 c 0.13176,-0.06906 -1.10574,-1.414448 -2.75,-2.989752 L 224,34.625818 v 4.710144 4.710144 l 2.75,-1.720393 c 1.5125,-0.946216 2.85781,-1.776896 2.98957,-1.845955 z m 12.65526,15.666553 c -3.46715,-1.39044 -3.98319,-1.957153 -3.32029,-3.646311 0.43169,-1.1 0.81652,-5.39783 0.85517,-9.550734 L 240,35.398531 l 4.56125,-2.216026 4.56125,-2.216026 4.48036,3.67132 4.48036,3.671321 -6.04161,3.820025 C 246.89847,45.381078 246,46.384546 246,48.87676 c 0,3.804103 4.56666,5.815492 7.90102,3.480013 1.15444,-0.8086 2.09898,-1.037424 2.09898,-0.508499 0,0.838842 -8.32303,6.323434 -9.17807,6.048037 -0.17706,-0.05703 -2.16926,-0.844529 -4.4271,-1.75 z m 8.35764,-14.923367 c 0.92565,-0.623786 0.469,-1.594645 -1.75,-3.720578 L 246,34.625818 v 4.722275 c 0,4.967593 0.10288,5.008178 4.75247,1.874851 z M 57.556704,54.777494 C 56.437221,53.179208 56,50.110304 56,43.850818 c 0,-7.447656 -0.249097,-8.752141 -1.725555,-9.036481 -1.311379,-0.252549 -0.905367,-0.851618 1.691544,-2.495866 3.018915,-1.911441 3.651404,-1.99944 5.427829,-0.755184 1.80101,1.261477 1.981088,2.344684 1.726541,10.385493 -0.156303,4.937417 0.0032,9.442144 0.354477,10.010504 0.41859,0.677293 1.681294,0.494218 3.664403,-0.531287 l 3.025738,-1.56467 -0.295147,-8.53958 c -0.254464,-7.362498 -0.04016,-8.726029 1.554739,-9.892249 1.560383,-1.14098 2.166893,-1.13063 3.875513,0.06613 1.788033,1.252387 2.035847,2.567317 2.112772,11.210586 0.06465,7.263924 0.409848,9.727242 1.337146,9.541782 2.133424,-0.426685 1.375785,1.437563 -1.295583,3.18791 -2.352131,1.541176 -6.433043,1.380141 -6.46973,-0.255298 -0.0084,-0.375436 -0.404958,-1.297664 -0.881192,-2.049395 -0.69704,-1.10027 -1.616785,-0.856529 -4.716822,1.25 -4.696963,3.191669 -5.830615,3.248754 -7.829969,0.394277 z M 84.186765,52.763876 C 85.814387,50.709008 87.56321,48.769951 88.073039,48.454859 89.777433,47.401486 89.026984,46.205057 86,45.149845 c -2.782859,-0.97011 -2.996429,-1.393377 -2.95067,-5.847825 0.04758,-4.631334 0.199501,-4.87639 4.27419,-6.894316 2.768838,-1.371223 4.905787,-1.826236 6.20067,-1.320285 4.612792,1.802361 12.76789,0.447201 9.49212,-1.577338 C 101.31122,28.456277 101.88193,27 104,27 c 3.10427,0 2.44111,3.124662 -1.6866,7.94697 -3.515715,4.107318 -3.599565,4.370613 -1.80887,5.679998 C 101.53728,41.382136 102.74625,42 103.19113,42 103.63601,42 104,44.6096 104,47.799112 c 0,5.79131 -0.005,5.800951 -3.75,7.167212 -2.0625,0.752456 -7.186324,1.405356 -11.386274,1.450889 L 81.227451,56.5 Z M 98,48.468615 c 0,-5.036163 -2.327437,-5.51014 -6.6335,-1.350897 L 87.864826,50.5 l 3.817587,0.608095 c 2.099673,0.334452 4.380087,0.671952 5.067587,0.75 0.79081,0.08978 1.25,-1.155356 1.25,-3.38948 z M 98.73502,36.451407 C 98.605759,36.349493 96.3625,36.036511 93.75,35.755892 89.082997,35.25459 89,35.295079 89,38.073147 c 0,4.656002 2.902631,5.382039 6.73502,1.684635 1.77926,-1.716592 3.12926,-3.204461 3,-3.306375 z m 14.81186,18.516307 -2.95311,-1.886087 0.29054,-9.177766 c 0.21623,-6.830554 -0.0515,-9.391599 -1.04689,-10.013867 -1.00629,-0.62909 -0.16136,-2.015571 3.41258,-5.599889 L 118,23.526316 v 3.736842 C 118,30.867168 118.12441,31 121.5,31 c 2.44444,0 3.5,0.452381 3.5,1.5 0,1.047619 -1.05556,1.5 -3.5,1.5 H 118 v 8.377555 c 0,8.906481 1.05584,11.202084 4.62325,10.051816 1.34907,-0.43499 1.08786,0.122497 -0.92901,1.982747 -3.27976,3.025065 -4.18424,3.086745 -8.14736,0.555596 z M 261,33.606989 c 0,-0.216156 0.69837,-0.661002 1.55194,-0.988546 0.88992,-0.341496 1.29132,-0.173849 0.94098,0.393011 C 262.90566,33.961658 261,34.416902 261,33.606989 Z M 259,30.5 c 0,-0.641667 0.675,-1.166667 1.5,-1.166667 0.825,0 1.5,0.525 1.5,1.166667 0,0.641667 -0.675,1.166667 -1.5,1.166667 -0.825,0 -1.5,-0.525 -1.5,-1.166667 z M 206,27.739414 C 206,25.627004 208.19617,22 209.47525,22 c 2.20167,0 1.88054,1.317128 -0.97525,4 -1.375,1.291745 -2.5,2.074482 -2.5,1.739414 z" />
</svg>
