<?xml version="1.0" encoding="UTF-8" standalone="no"?>
<!-- Created with Inkscape (http://www.inkscape.org/) -->

<svg
   width="121.71392mm"
   height="45.944496mm"
   viewBox="0 0 121.71392 45.944496"
   version="1.1"
   id="svg3239"
   xml:space="preserve"
   xmlns:inkscape="http://www.inkscape.org/namespaces/inkscape"
   xmlns:sodipodi="http://sodipodi.sourceforge.net/DTD/sodipodi-0.dtd"
   xmlns="http://www.w3.org/2000/svg"
   xmlns:svg="http://www.w3.org/2000/svg"><sodipodi:namedview
     id="namedview3241"
     pagecolor="#ffffff"
     bordercolor="#000000"
     borderopacity="0.25"
     inkscape:showpageshadow="2"
     inkscape:pageopacity="0.0"
     inkscape:pagecheckerboard="0"
     inkscape:deskcolor="#d1d1d1"
     inkscape:document-units="mm"
     showgrid="false" /><defs
     id="defs3236" /><g
     inkscape:label="Layer 1"
     inkscape:groupmode="layer"
     id="layer1"
     transform="translate(-108.40104,-1.985541)"><path
       style="fill:none;fill-opacity:0.0115607;stroke-width:0.264583"
       d="m 228.67199,47.930038 -117.2335,-0.01154 v -7.855815 h 5.19059 V 21.745512 h -8.22803 l 0.088,-2.236417 0.23087,-1.962453 0.48485,-2.054804 0.83115,-2.239506 0.99277,-1.847015 0.9466,-1.4545242 1.15438,-1.5468751 2.28568,-2.1471548 2.35495,-1.6392255 2.60891,-1.3390859 1.98554,-0.6233676 1.80084,-0.4155783 3.16301,-0.2539646 h 84.10844 l 2.53965,0.1847015 1.47761,0.3232276 1.29291,0.369403 1.98554,0.6926305 1.52379,0.7849814 1.80084,1.1082089 1.61614,1.2929105 1.98553,2.0317164 1.8932,2.7243472 0.71572,1.408349 0.66954,1.569962 0.64645,2.077892 0.32323,2.170243 0.20779,2.147154 v 0.946596 h -8.14995 v 18.285447 h 6.71851 z"
       id="path3372" /></g></svg>
