<?xml version="1.0" encoding="UTF-8"?>
<svg version="1.1" xmlns="http://www.w3.org/2000/svg" width="1018" height="253">
<path d="M0 0 C4.29 0 8.58 0 13 0 C20.3318062 25.51872224 27.56667594 51.06414972 34.75 76.625 C34.95496849 77.35434753 35.15993698 78.08369507 35.37111664 78.83514404 C37.91556431 87.88967873 40.45850057 96.94463729 43 106 C47.37961566 91.38395422 51.47904442 76.70101552 55.4609375 61.97265625 C55.7000309 61.08867535 55.9391243 60.20469444 56.18546295 59.29392624 C58.43187967 50.98530692 60.67147828 42.67485237 62.90966797 34.36401367 C64.14686341 29.77094513 65.38730105 25.17876202 66.62968826 20.58709526 C67.32641578 18.00790436 68.01924317 15.4276856 68.71200562 12.84742737 C69.13379973 11.28763156 69.5557954 9.72789024 69.97802734 8.16821289 C70.169151 7.45210342 70.36027466 6.73599396 70.55718994 5.9981842 C71.88608264 1.11391736 71.88608264 1.11391736 73 0 C75.01964199 -0.07244053 77.04167124 -0.08377188 79.0625 -0.0625 C80.16722656 -0.05347656 81.27195312 -0.04445313 82.41015625 -0.03515625 C83.26480469 -0.02355469 84.11945313 -0.01195313 85 0 C85.28957077 1.04997162 85.57914154 2.09994324 85.87748718 3.18173218 C88.62767673 13.15372076 91.37804235 23.12566077 94.12857342 33.09755516 C95.54210071 38.22223955 96.95556936 43.34694009 98.36889648 48.47167969 C99.73686825 53.43195136 101.10500385 58.39217782 102.47324562 63.35237503 C102.99110371 65.22983874 103.50890611 67.10731781 104.02664757 68.98481369 C107.33822454 80.99346926 110.66153376 92.99879095 114 105 C115.87091913 101.61139086 116.89500791 98.19408077 117.93603516 94.47265625 C118.11854828 93.82454483 118.3010614 93.17643341 118.48910522 92.50868225 C119.0929017 90.36100373 119.69095611 88.21176943 120.2890625 86.0625 C120.71507087 84.54335237 121.14145948 83.02431132 121.56820679 81.50537109 C122.69642745 77.48607087 123.81990099 73.46545925 124.94226074 69.44451904 C126.05409999 65.46362564 127.16960122 61.4837597 128.28515625 57.50390625 C128.50308208 56.72636993 128.72100792 55.94883362 128.94553757 55.1477356 C129.38373555 53.58436306 129.8219615 52.02099836 130.26021576 50.4576416 C130.69569585 48.90403752 131.13108522 47.350408 131.56638336 45.79675293 C134.55494936 35.13022132 137.5546666 24.46698166 140.5859375 13.8125 C140.91912994 12.6363916 141.25232239 11.4602832 141.59561157 10.24853516 C141.8996994 9.18296387 142.20378723 8.11739258 142.51708984 7.01953125 C142.91291763 5.62891479 142.91291763 5.62891479 143.31674194 4.21020508 C144 2 144 2 145 0 C148.96 0 152.92 0 157 0 C155.64075119 7.25724573 153.89465605 14.29238173 151.85131836 21.38476562 C151.38511833 23.020737 151.38511833 23.020737 150.90950012 24.6897583 C149.89013989 28.26303741 148.86511934 31.83466411 147.83984375 35.40625 C147.12736064 37.89815135 146.41517125 40.3901367 145.70326233 42.88220215 C144.2153548 48.0875391 142.72489576 53.29213449 141.23217773 58.49609375 C139.50628853 64.51302916 137.78459164 70.53115152 136.06524557 76.54995966 C134.40770246 82.3522751 132.74785644 88.15392814 131.08682442 93.95524597 C130.38102126 96.42077499 129.67570207 98.88644261 128.97086906 101.35224915 C127.98900418 104.7855388 127.00453857 108.21807152 126.01928711 111.65039062 C125.72680084 112.67477234 125.43431458 113.69915405 125.13296509 114.75457764 C124.86522781 115.68526062 124.59749054 116.6159436 124.32164001 117.5748291 C124.08918044 118.38592384 123.85672087 119.19701859 123.61721706 120.03269196 C123 122 123 122 122 124 C116.72 124 111.44 124 106 124 C99.48039848 100.78893708 93.14857792 77.52855005 86.875 54.25 C86.58291594 53.16621126 86.58291594 53.16621126 86.28493118 52.0605278 C83.85435756 43.04096073 81.42610725 34.02076956 79 25 C76.94722163 30.27956242 75.20963437 35.50783198 73.77929688 40.9855957 C73.57885269 41.73962677 73.37840851 42.49365784 73.17189026 43.27053833 C72.51698354 45.73794857 71.867846 48.20683668 71.21875 50.67578125 C70.75976892 52.40929282 70.30041184 54.14270488 69.84069824 55.87602234 C68.63489393 60.4262506 67.43392781 64.97774167 66.23406982 69.52954102 C65.01944581 74.13434656 63.80068104 78.7380554 62.58203125 83.34179688 C61.20810263 88.53218472 59.83447854 93.7226482 58.46472168 98.91413879 C57.48435907 102.62946828 56.50094514 106.34397461 55.51480103 110.05777359 C55.03149442 111.88117876 54.55163736 113.70549728 54.07202148 115.52987671 C53.67188843 117.03332138 53.67188843 117.03332138 53.26367188 118.56713867 C52.92813293 119.8365052 52.92813293 119.8365052 52.58581543 121.1315155 C52 123 52 123 51 124 C48.30345146 124.07319621 45.63308542 124.09242537 42.9375 124.0625 C42.17888672 124.05798828 41.42027344 124.05347656 40.63867188 124.04882812 C38.75908129 124.0370068 36.87953101 124.01907078 35 124 C26.26549133 94.18194538 17.63124895 64.3367146 9.1423378 34.44784927 C8.49860026 32.1825744 7.85384693 29.91759083 7.20883179 27.65267944 C6.19048516 24.07613718 5.1749079 20.4988203 4.16158104 16.92085266 C3.78577459 15.59528811 3.40911005 14.2699665 3.03154945 12.94490051 C2.51529493 11.13218516 2.00266356 9.3184391 1.49023438 7.50463867 C1.20096069 6.48472336 0.91168701 5.46480804 0.61364746 4.41398621 C0 2 0 2 0 0 Z " fill="#000000" transform="translate(673,127)"/>
<path d="M0 0 C2.07112259 2.01020722 3.19291005 3.35096561 4.125 6.0625 C4.125 7.3825 4.125 8.7025 4.125 10.0625 C6.52221981 8.87773796 8.91776957 7.68977666 11.3125 6.5 C12.0334082 6.14373535 12.75431641 5.7874707 13.49707031 5.42041016 C17.02951402 3.66196559 20.52006828 1.86940959 23.94140625 -0.09765625 C25.07449219 -0.74605469 26.20757812 -1.39445313 27.375 -2.0625 C28.89867187 -2.96355469 28.89867187 -2.96355469 30.453125 -3.8828125 C33.125 -4.9375 33.125 -4.9375 35.27734375 -4.3125 C40.69911687 -0.2776921 45.04429085 5.02627181 49.41015625 10.14453125 C51.06106051 11.99098681 52.80074835 13.63991823 54.625 15.3125 C57.125 18.0625 57.125 18.0625 57.06079102 20.05957031 C55.7805801 22.79968259 54.31044613 23.4550945 51.65234375 24.859375 C50.75322266 25.34277344 49.85410156 25.82617188 48.92773438 26.32421875 C47.50944336 27.06091797 47.50944336 27.06091797 46.0625 27.8125 C45.11310547 28.31910156 44.16371094 28.82570312 43.18554688 29.34765625 C40.83811185 30.59804877 38.48477737 31.83560569 36.125 33.0625 C36.82625 33.46339844 37.5275 33.86429688 38.25 34.27734375 C49.94276528 41.28347077 55.58046871 49.24293694 61.29296875 61.28515625 C63.26601927 65.43133262 65.5782549 69.24238235 68.125 73.0625 C69.775 72.4025 71.425 71.7425 73.125 71.0625 C74.115 72.5475 74.115 72.5475 75.125 74.0625 C72.76501947 75.93907485 70.39017993 77.78760513 68 79.625 C67.33484375 80.15802734 66.6696875 80.69105469 65.984375 81.24023438 C60.95378024 85.0625 60.95378024 85.0625 56.8125 85.0625 C49.25995635 82.2522512 46.36789108 73.81200677 43.09082031 67.05517578 C38.85898246 58.35459815 34.59887322 50.38243498 25.6875 45.8125 C22.43446634 44.79439018 22.43446634 44.79439018 16.125 44.0625 C16.455 51.3225 16.785 58.5825 17.125 66.0625 C26.33998579 70.69635751 26.33998579 70.69635751 36.125 70.0625 C36.125 74.0625 36.125 74.0625 34.88745117 75.51049805 C34.32002197 75.94402588 33.75259277 76.37755371 33.16796875 76.82421875 C32.54986328 77.30310547 31.93175781 77.78199219 31.29492188 78.27539062 C30.64072266 78.76201172 29.98652344 79.24863281 29.3125 79.75 C28.66990234 80.24822266 28.02730469 80.74644531 27.36523438 81.25976562 C24.58199927 83.38540736 22.48157195 84.94364268 19.125 86.0625 C16.63671875 85.13671875 16.63671875 85.13671875 13.8125 83.75 C-3.92392733 75.33626772 -21.22366294 78.02280949 -39.875 82.0625 C-39.59575855 78.74009664 -39.27900184 77.41517674 -36.72265625 75.18359375 C-29.43420418 70.77781136 -22.21480957 67.00022341 -13.875 65.0625 C-14.34297905 57.57483526 -17.39644494 52.12422065 -22.875 47 C-27.984737 42.86896541 -34.04345464 40.02650351 -39.875 37.0625 C-37.47872619 34.42635202 -34.89808875 32.73667495 -31.83984375 30.92578125 C-30.86595703 30.34892578 -29.89207031 29.77207031 -28.88867188 29.17773438 C-27.87353516 28.58283203 -26.85839844 27.98792969 -25.8125 27.375 C-24.79349609 26.76849609 -23.77449219 26.16199219 -22.72460938 25.53710938 C-15.12935004 21.0625 -15.12935004 21.0625 -12.875 21.0625 C-12.93529967 19.14497047 -13.02416707 17.22832574 -13.125 15.3125 C-13.17140625 14.24515625 -13.2178125 13.1778125 -13.265625 12.078125 C-13.98828036 8.50190746 -15.07035741 7.3188666 -17.875 5.0625 C-20.171537 3.9142315 -21.45813167 3.94688825 -24.0078125 3.96484375 C-24.81347656 3.96806641 -25.61914062 3.97128906 -26.44921875 3.97460938 C-27.71185547 3.98717773 -27.71185547 3.98717773 -29 4 C-30.27423828 4.00676758 -30.27423828 4.00676758 -31.57421875 4.01367188 C-33.67450909 4.02547126 -35.7747633 4.04340694 -37.875 4.0625 C-36.875 1.0625 -36.875 1.0625 -34.51171875 -0.2890625 C-33.53847656 -0.70929687 -32.56523437 -1.12953125 -31.5625 -1.5625 C-30.59699219 -1.98789062 -29.63148438 -2.41328125 -28.63671875 -2.8515625 C-18.7858545 -6.72502822 -8.77493826 -5.91354535 0 0 Z M17.125 7.0625 C16.40723004 10.31724955 16.40723004 10.31724955 16.375 14.1875 C16.34607666 14.88875 16.31715332 15.59 16.28735352 16.3125 C16.01005711 23.8913731 16.03425493 31.48024507 16.125 39.0625 C19.65987596 39.0625 20.98236507 38.20003305 24.01171875 36.4375 C24.94951172 35.89609375 25.88730469 35.3546875 26.85351562 34.796875 C27.82998047 34.22453125 28.80644531 33.6521875 29.8125 33.0625 C30.80056641 32.49015625 31.78863281 31.9178125 32.80664062 31.328125 C35.24949876 29.91197536 37.68871318 28.48991542 40.125 27.0625 C38.3047634 23.14755084 35.76012951 20.29562461 32.8125 17.1875 C31.85668934 16.17056948 30.90225695 15.15234174 29.94921875 14.1328125 C29.48177246 13.63297852 29.01432617 13.13314453 28.53271484 12.61816406 C27.07886397 11.01151512 25.70231087 9.3579228 24.33203125 7.6796875 C23.60371094 6.81601563 22.87539062 5.95234375 22.125 5.0625 C19.94007905 5.0625 18.87262204 5.78962568 17.125 7.0625 Z M5.125 14.0625 C5.125 30.8925 5.125 47.7225 5.125 65.0625 C7.435 65.3925 9.745 65.7225 12.125 66.0625 C12.76834255 47.39016686 13.29470556 28.74896784 13.125 10.0625 C10.14357603 10.0625 7.71360092 12.58329948 5.125 14.0625 Z M-20 28.0625 C-21.36511719 28.8978125 -21.36511719 28.8978125 -22.7578125 29.75 C-23.45648438 30.183125 -24.15515625 30.61625 -24.875 31.0625 C-21.0814129 34.28130117 -17.21670523 36.6788187 -12.875 39.0625 C-12.875 34.4425 -12.875 29.8225 -12.875 25.0625 C-15.81886623 25.0625 -17.51386498 26.53257076 -20 28.0625 Z " fill="#000000" transform="translate(231.875,4.9375)"/>
<path d="M0 0 C1.0098999 0.01087646 2.0197998 0.02175293 3.06030273 0.03295898 C21.2911156 0.42278916 36.59863013 7.54302996 49.5625 20.375 C60.63628003 32.9639425 67.47879793 49.57220061 66.8359375 66.484375 C64.94165132 86.50968608 57.015742 101.56998121 41.90625 114.6796875 C25.95108614 127.11532992 7.63421669 130.31560245 -11.99609375 127.9453125 C-28.99127836 124.57539829 -44.21619905 114.27302791 -54.4375 100.375 C-64.622239 84.14696037 -67.68254094 67.09345909 -63.6015625 48.34765625 C-59.05126221 31.45791366 -48.06912131 17.69115426 -33.4375 8.375 C-22.85145403 2.51826641 -12.06309747 -0.1775925 0 0 Z M-39.71875 28.93359375 C-50.55667685 42.99618546 -53.75144168 56.93407579 -52.4375 74.375 C-50.11622365 87.01616759 -42.33911345 98.36289563 -32.4375 106.375 C-19.03060665 115.5321006 -5.62758091 119.22127866 10.66015625 116.94140625 C25.42209043 113.81008688 36.66024253 105.64294444 45.44140625 93.6484375 C53.66761345 80.95311221 55.58996991 66.40443629 52.87890625 51.65625 C50.84419492 44.56431009 47.82280044 38.38710282 43.5625 32.375 C42.84513672 31.34632813 42.84513672 31.34632813 42.11328125 30.296875 C34.42967256 20.46495254 21.77322369 13.40563797 9.5625 11.375 C-9.14266774 9.47593232 -26.85501403 14.50594468 -39.71875 28.93359375 Z " fill="#000000" transform="translate(597.4375,124.625)"/>
<path d="M0 0 C60.40304816 0 60.40304816 0 74.3125 12.6875 C82.35791295 21.15635574 84.33815701 31.36797319 84.2109375 42.65234375 C83.54624898 53.20119673 78.84421227 61.64386501 71.1875 68.8125 C64.03248012 74.66413865 57.10962978 76.52380739 48 77 C52.25904537 83.58569077 56.83748937 89.85311727 61.625 96.0625 C63.03427424 97.902022 64.4431236 99.74186958 65.8515625 101.58203125 C66.89425293 102.94255615 66.89425293 102.94255615 67.95800781 104.33056641 C70.98806638 108.2916688 73.99972468 112.26630621 77 116.25 C77.50998535 116.92297119 78.0199707 117.59594238 78.54541016 118.28930664 C82 122.88351127 82 122.88351127 82 124 C76.5818243 125.2032572 71.31955811 125.98612847 66 124 C60.75337313 119.72669213 57.3927223 113.45031623 53.82568359 107.79345703 C50.74676873 103.08244554 47.26718731 98.68853988 43.8125 94.25 C38.98964657 87.95485208 34.20110057 81.63669511 29.5 75.25 C29.03698486 74.62383789 28.57396973 73.99767578 28.09692383 73.35253906 C25 69.12194684 25 69.12194684 25 68 C26.07636719 67.96261719 27.15273438 67.92523438 28.26171875 67.88671875 C48.73548542 67.04370487 48.73548542 67.04370487 65.58984375 56.3359375 C70.28023953 50.38117416 71.6444375 43.47547498 71 36 C69.6513869 28.53358749 66.95727381 22.83894082 61 18 C45.28187001 8.94743803 31.48528676 11.59046324 12 11 C12 48.29 12 85.58 12 124 C8.04 124 4.08 124 0 124 C0 83.08 0 42.16 0 0 Z " fill="#000000" transform="translate(934,127)"/>
<path d="M0 0 C7.24391147 5.79387373 14.22661057 12.73793717 17.21386719 21.69970703 C5.20938543 23.23655391 5.20938543 23.23655391 0.59667969 19.68408203 C-0.88383026 17.92432999 -2.32371835 16.12969666 -3.72363281 14.30517578 C-10.05849012 6.3026193 -21.83455168 1.15966953 -31.78613281 -0.30029297 C-48.2298343 -1.40987902 -61.46681164 1.92909914 -74.25878906 12.80126953 C-84.78185861 22.74460403 -90.74718216 34.97280855 -91.20800781 49.52368164 C-91.31206891 65.26454866 -86.19580493 77.86209221 -75.27050781 89.41064453 C-64.1857286 99.62397884 -51.18627826 104.11676936 -36.29785156 103.98095703 C-21.82177433 102.82158266 -10.85170757 95.62174418 -0.78613281 85.69970703 C-0.02300781 84.68908203 0.74011719 83.67845703 1.52636719 82.63720703 C6.15134737 79.30291899 11.70553011 80.33678585 17.21386719 80.69970703 C11.93120541 94.95060857 -0.60698305 104.21286494 -13.78613281 110.69970703 C-28.71911677 117.14211657 -46.31938667 118.09195972 -61.78613281 112.69970703 C-80.10983752 105.20364602 -93.07415577 92.94335272 -100.78613281 74.69970703 C-106.75847817 58.34574572 -106.41464092 40.50998475 -99.27294922 24.5559082 C-91.42683151 8.30656348 -78.59160126 -2.77412955 -61.78613281 -9.30029297 C-60.99335937 -9.62126953 -60.20058594 -9.94224609 -59.38378906 -10.27294922 C-39.87838894 -16.89800613 -16.39892684 -11.93831115 0 0 Z " fill="#000000" transform="translate(104.7861328125,137.30029296875)"/>
<path d="M0 0 C22.44 0 44.88 0 68 0 C68 3.63 68 7.26 68 11 C49.52 11 31.04 11 12 11 C12 25.85 12 40.7 12 56 C29.82 56 47.64 56 66 56 C66 59.63 66 63.26 66 67 C48.18 67 30.36 67 12 67 C12 82.18 12 97.36 12 113 C30.48 113 48.96 113 68 113 C68 116.63 68 120.26 68 124 C45.56 124 23.12 124 0 124 C0 83.08 0 42.16 0 0 Z " fill="#000000" transform="translate(844,127)"/>
<path d="M0 0 C3.13277251 1.43585407 5.69660133 3.20851844 7.875 5.859375 C8.80378922 8.49325958 9.28601258 11.11918115 9.875 13.859375 C10.79780762 13.26866211 10.79780762 13.26866211 11.73925781 12.66601562 C14.52866803 10.88777976 17.32663494 9.12348194 20.125 7.359375 C21.09308594 6.73933594 22.06117188 6.11929687 23.05859375 5.48046875 C23.99316406 4.89394531 24.92773438 4.30742187 25.890625 3.703125 C26.74946289 3.15849609 27.60830078 2.61386719 28.49316406 2.05273438 C30.875 0.859375 30.875 0.859375 34.875 0.859375 C36.47265625 2.1796875 36.47265625 2.1796875 37.9375 3.984375 C38.66646484 4.85449219 38.66646484 4.85449219 39.41015625 5.7421875 C41.19532142 8.32234622 42.52508069 11.03135413 43.875 13.859375 C44.33350342 13.53662598 44.79200684 13.21387695 45.2644043 12.88134766 C47.36016724 11.41047907 49.4612469 9.94738847 51.5625 8.484375 C52.28373047 7.97648437 53.00496094 7.46859375 53.74804688 6.9453125 C57.34821249 4.44656741 60.66955914 2.23630435 64.875 0.859375 C65.39449219 1.37628906 65.91398438 1.89320312 66.44921875 2.42578125 C67.14660156 3.08449219 67.84398437 3.74320313 68.5625 4.421875 C69.58923828 5.41380859 69.58923828 5.41380859 70.63671875 6.42578125 C72.80321514 8.13294608 72.80321514 8.13294608 75.5 7.640625 C77.7682141 6.89450194 79.78948182 6.01799621 81.875 4.859375 C82.865 5.849375 82.865 5.849375 83.875 6.859375 C83.23183838 7.3862793 83.23183838 7.3862793 82.57568359 7.92382812 C77.11766422 13.51055189 77.26211865 19.11349581 77.30316162 26.4855957 C77.34835779 29.11106558 77.42342549 31.73465109 77.5 34.359375 C77.53013056 36.1536012 77.55750093 37.947876 77.58203125 39.7421875 C77.64779936 44.11579264 77.75114695 48.4870449 77.875 52.859375 C79.20833333 53.19270833 80.54166667 53.52604167 81.875 53.859375 C83.20833333 54.19270833 84.54166667 54.52604167 85.875 54.859375 C83.07261657 57.77178272 80.18282021 60.32413719 76.9375 62.734375 C76.10347656 63.37117188 75.26945313 64.00796875 74.41015625 64.6640625 C71.875 65.859375 71.875 65.859375 69.23046875 65.23828125 C65.04569455 62.78848806 62.4243605 59.5074565 60.875 54.859375 C60.76833014 51.94679211 60.71386655 49.05374845 60.69921875 46.140625 C60.67603042 44.38670662 60.6519135 42.63280031 60.62695312 40.87890625 C60.59176657 38.11368606 60.56244939 35.34891349 60.54907227 32.58349609 C60.53363488 29.91449027 60.49346681 27.246788 60.44921875 24.578125 C60.45112717 23.74994263 60.45303558 22.92176025 60.45500183 22.06848145 C60.39962115 17.50936797 60.39962115 17.50936797 57.98754883 13.81054688 C55.09007036 12.50596163 53.86157509 12.79274104 50.875 13.859375 C48.8569245 15.16518856 46.85446592 16.49574292 44.875 17.859375 C44.215 17.859375 43.555 17.859375 42.875 17.859375 C42.94383588 22.64708173 43.03178029 27.43391159 43.13745117 32.22094727 C43.17070536 33.84942909 43.19873584 35.47802631 43.22143555 37.10668945 C43.25497357 39.44792861 43.30728585 41.78810986 43.36328125 44.12890625 C43.36967117 44.85713089 43.3760611 45.58535553 43.38264465 46.33564758 C43.43901258 50.32520116 43.43901258 50.32520116 45.40698242 53.6550293 C45.89142822 54.05246338 46.37587402 54.44989746 46.875 54.859375 C46.875 55.849375 46.875 56.839375 46.875 57.859375 C44.46875 59.90234375 44.46875 59.90234375 41.375 62.046875 C40.3540625 62.76230469 39.333125 63.47773437 38.28125 64.21484375 C37.4871875 64.75753906 36.693125 65.30023438 35.875 65.859375 C34.07860704 64.76291442 32.28802846 63.65692352 30.5 62.546875 C29.50226562 61.93199219 28.50453125 61.31710938 27.4765625 60.68359375 C24.875 58.859375 24.875 58.859375 22.875 55.859375 C23.52476807 55.36695313 24.17453613 54.87453125 24.84399414 54.3671875 C27.61267697 50.94851818 27.43380426 47.9448335 27.37109375 43.734375 C27.3732766 42.5585083 27.3732766 42.5585083 27.37550354 41.35888672 C27.37384665 39.70471472 27.36230872 38.05052698 27.34155273 36.39648438 C27.31259673 33.86782194 27.32094701 31.34125695 27.33398438 28.8125 C27.32774653 27.20311483 27.31935522 25.59373627 27.30859375 23.984375 C27.31152939 23.2301123 27.31446503 22.47584961 27.31748962 21.69873047 C27.24196383 17.48583627 26.88866463 14.9125025 23.875 11.859375 C18.87013706 12.3285809 14.42670301 14.30916514 10.875 17.859375 C9.7287062 21.37857237 9.79938075 24.74554502 9.875 28.421875 C9.86702393 29.40534912 9.85904785 30.38882324 9.85083008 31.40209961 C9.83847209 33.34615558 9.84167655 35.29038408 9.86181641 37.234375 C9.87280597 39.42251874 9.79680777 41.6108809 9.69921875 43.796875 C9.38659147 50.80591459 9.38659147 50.80591459 13.875 56.859375 C7.935 61.314375 7.935 61.314375 1.875 65.859375 C-7.83928571 59.57366071 -7.83928571 59.57366071 -11.125 55.859375 C-10.47523193 55.54492432 -9.82546387 55.23047363 -9.15600586 54.90649414 C-6.53753012 52.26724434 -6.63867189 50.23970724 -6.59486389 46.62461853 C-6.61171486 45.37763939 -6.61171486 45.37763939 -6.62890625 44.10546875 C-6.62745102 43.24881119 -6.62599579 42.39215363 -6.62449646 41.50953674 C-6.62615575 39.69976396 -6.63772051 37.88997712 -6.65844727 36.08032227 C-6.68742988 33.30359296 -6.67905232 30.52876888 -6.66601562 27.75195312 C-6.67225209 25.99478235 -6.68064231 24.23761762 -6.69140625 22.48046875 C-6.68847061 21.64712509 -6.68553497 20.81378143 -6.68251038 19.95518494 C-6.68969932 17.37599072 -6.68969932 17.37599072 -7.125 13.859375 C-8.115 13.199375 -9.105 12.539375 -10.125 11.859375 C-11.115 12.354375 -11.115 12.354375 -12.125 12.859375 C-12.785 12.529375 -13.445 12.199375 -14.125 11.859375 C-12.60773502 8.08326047 -10.38348293 6.0899242 -7.25 3.546875 C-6.38632812 2.82886719 -5.52265625 2.11085938 -4.6328125 1.37109375 C-2.125 -0.140625 -2.125 -0.140625 0 0 Z " fill="#000000" transform="translate(567.125,25.140625)"/>
<path d="M0 0 C20.79 0 41.58 0 63 0 C63 3.63 63 7.26 63 11 C46.17 11 29.34 11 12 11 C12 25.85 12 40.7 12 56 C28.17 56 44.34 56 61 56 C61 59.63 61 63.26 61 67 C44.83 67 28.66 67 12 67 C12 85.81 12 104.62 12 124 C8.04 124 4.08 124 0 124 C0 83.08 0 42.16 0 0 Z " fill="#000000" transform="translate(338,127)"/>
<path d="M0 0 C20.79 0 41.58 0 63 0 C63 3.63 63 7.26 63 11 C46.17 11 29.34 11 12 11 C12 25.85 12 40.7 12 56 C28.17 56 44.34 56 61 56 C61 59.63 61 63.26 61 67 C44.83 67 28.66 67 12 67 C12 85.81 12 104.62 12 124 C8.04 124 4.08 124 0 124 C0 83.08 0 42.16 0 0 Z " fill="#000000" transform="translate(257,127)"/>
<path d="M0 0 C22.77 0 45.54 0 69 0 C69 3.63 69 7.26 69 11 C59.76 11 50.52 11 41 11 C41 48.29 41 85.58 41 124 C37.04 124 33.08 124 29 124 C29 86.71 29 49.42 29 11 C19.43 11 9.86 11 0 11 C0 7.37 0 3.74 0 0 Z " fill="#000000" transform="translate(455,127)"/>
<path d="M0 0 C2.25891821 1.48531608 4.46116122 2.96230367 6.59375 4.625 C7.29113281 5.16382813 7.98851562 5.70265625 8.70703125 6.2578125 C9.48626953 6.87269531 9.48626953 6.87269531 10.28125 7.5 C9.28125 10.5 9.28125 10.5 7.28125 11.5 C7.20713629 16.99923749 7.15266536 22.49818479 7.11645508 27.99780273 C7.10136127 29.86894799 7.08088411 31.74005783 7.05493164 33.61108398 C7.01857407 36.29940526 7.00152985 38.98725913 6.98828125 41.67578125 C6.97279739 42.51337479 6.95731354 43.35096832 6.94136047 44.21394348 C6.78510633 48.57833181 6.78510633 48.57833181 8.80253601 52.24504089 C9.53449944 52.86624565 9.53449944 52.86624565 10.28125 53.5 C11.9788094 52.91646396 13.63669725 52.21949183 15.28125 51.5 C16.28055542 51.19316284 16.28055542 51.19316284 17.30004883 50.88012695 C20.01447379 49.74129677 21.4184146 48.81047512 23.28125 46.5 C24.25331722 41.55213015 24.22268508 36.78652111 24.04956055 31.76123047 C23.96874012 29.37470816 23.94709504 26.99323528 23.93554688 24.60546875 C23.91229659 23.088485 23.88571826 21.57154782 23.85546875 20.0546875 C23.84585617 19.34214813 23.83624359 18.62960876 23.82633972 17.89547729 C23.71009717 14.87829358 23.63392544 12.95285522 21.74536133 10.52783203 C21.26220459 10.18864746 20.77904785 9.84946289 20.28125 9.5 C22.38149883 3.94761803 27.32843999 2.29389283 32.28125 -0.5 C36.24125 2.14 40.20125 4.78 44.28125 7.5 C43.29125 8.82 42.30125 10.14 41.28125 11.5 C40.70800701 14.04081143 40.70800701 14.04081143 40.60546875 16.8359375 C40.54149902 17.89651367 40.4775293 18.95708984 40.41162109 20.04980469 C40.18389023 26.0765698 40.09692079 32.09416297 40.09375 38.125 C40.07538086 40.02185547 40.07538086 40.02185547 40.05664062 41.95703125 C40.05470703 43.15972656 40.05277344 44.36242187 40.05078125 45.6015625 C40.04667236 46.68775879 40.04256348 47.77395508 40.03833008 48.89306641 C40.01642604 51.66081015 40.01642604 51.66081015 42.28125 53.5 C44.86479218 53.66687448 44.86479218 53.66687448 47.28125 53.5 C47.28125 54.49 47.28125 55.48 47.28125 56.5 C44.98046875 58.5078125 44.98046875 58.5078125 41.96875 60.625 C40.98261719 61.32882813 39.99648438 62.03265625 38.98046875 62.7578125 C36.28125 64.5 36.28125 64.5 33.28125 65.5 C28.99466011 63.17809714 26.25564906 60.99724231 24.28125 56.5 C24.23721252 54.83391522 24.23118913 53.16591467 24.28125 51.5 C16.31130438 55.69581793 8.81523179 60.58094219 1.28125 65.5 C-4.95117842 61.78451383 -7.50793071 58.40048972 -9.71875 51.5 C-10.24315042 48.27809022 -10.32329017 45.13133385 -10.328125 41.87109375 C-10.35292938 40.55843285 -10.35292938 40.55843285 -10.37823486 39.21925354 C-10.42633249 36.45859494 -10.44799978 33.69848551 -10.46875 30.9375 C-10.49694178 29.05140522 -10.52687364 27.16533561 -10.55859375 25.27929688 C-10.63208055 20.68624323 -10.6818877 16.09348763 -10.71875 11.5 C-12.36875 11.83 -14.01875 12.16 -15.71875 12.5 C-16.37875 11.51 -17.03875 10.52 -17.71875 9.5 C-15.33700679 7.76836783 -12.94176227 6.06572209 -10.53125 4.375 C-9.85771484 3.88128906 -9.18417969 3.38757813 -8.49023438 2.87890625 C-3.42478332 -0.62984521 -3.42478332 -0.62984521 0 0 Z " fill="#000000" transform="translate(326.71875,24.5)"/>
<path d="M0 0 C3.96 0 7.92 0 12 0 C12 37.29 12 74.58 12 113 C29.16 113 46.32 113 64 113 C64 116.63 64 120.26 64 124 C42.88 124 21.76 124 0 124 C0 83.08 0 42.16 0 0 Z " fill="#000000" transform="translate(144,127)"/>
<path d="M0 0 C3 0.25 3 0.25 5 2.25 C5.5733278 6.45440386 4.98754224 9.06092467 2.46875 12.48828125 C-0.18671559 15.67342748 -3.002821 18.71336993 -5.8046875 21.76953125 C-8.47443431 24.78606012 -10.75079175 27.91246518 -13 31.25 C-12.07316406 31.74371094 -11.14632812 32.23742187 -10.19140625 32.74609375 C-8.98172045 33.39313499 -7.77208778 34.04027554 -6.5625 34.6875 C-5.95083984 35.01298828 -5.33917969 35.33847656 -4.70898438 35.67382812 C-0.11328125 38.13671875 -0.11328125 38.13671875 1 39.25 C1.08737645 41.10369611 1.10698153 42.96067541 1.09765625 44.81640625 C1.09443359 45.94111328 1.09121094 47.06582031 1.08789062 48.22460938 C1.07532227 50.00061523 1.07532227 50.00061523 1.0625 51.8125 C1.05798828 53.00037109 1.05347656 54.18824219 1.04882812 55.41210938 C1.03699675 58.35812226 1.02051287 61.30403681 1 64.25 C0.05898438 64.63671875 -0.88203125 65.0234375 -1.8515625 65.421875 C-3.10951333 65.94758579 -4.36731809 66.4736462 -5.625 67 C-6.24246094 67.25265625 -6.85992187 67.5053125 -7.49609375 67.765625 C-10.73584761 69.12973189 -13.31638297 70.47423259 -16.21875 72.53125 C-19 74.25 -19 74.25 -20.9921875 73.984375 C-21.92417969 73.49710938 -21.92417969 73.49710938 -22.875 73 C-30.87007553 69.76131686 -41.10124427 70.326643 -49.375 72.375 C-50.57125 72.66375 -51.7675 72.9525 -53 73.25 C-53.66 72.59 -54.32 71.93 -55 71.25 C-42.04255319 56.10106383 -42.04255319 56.10106383 -36 49.25 C-38.98262118 47.26158588 -41.97640675 45.71328268 -45.1875 44.125 C-47.105625 43.17625 -49.02375 42.2275 -51 41.25 C-51 33.99 -51 26.73 -51 19.25 C-43.3125 15.4375 -43.3125 15.4375 -40.91918945 14.25463867 C-40.28198975 13.9372876 -39.64479004 13.61993652 -38.98828125 13.29296875 C-38.29605469 12.95023926 -37.60382813 12.60750977 -36.890625 12.25439453 C-34.81249572 11.20007004 -34.81249572 11.20007004 -32.33203125 9.37890625 C-30 8.25 -30 8.25 -27.2734375 8.796875 C-26.31695312 9.19390625 -25.36046875 9.5909375 -24.375 10 C-16.68097516 12.87104622 -9.11011662 14.22273107 -1 12.25 C-1.56545837 8.29179141 -2.80902348 5.5840947 -5 2.25 C-3 0.25 -3 0.25 0 0 Z M-36 20.25 C-36 25.2 -36 30.15 -36 35.25 C-34.7625 35.95125 -33.525 36.6525 -32.25 37.375 C-31.55390625 37.76945312 -30.8578125 38.16390625 -30.140625 38.5703125 C-28.01485761 39.47201303 -28.01485761 39.47201303 -25.94921875 38.59765625 C-20.11455685 34.56367157 -15.97062788 28.02545873 -12 22.25 C-12.90878906 22.28480469 -12.90878906 22.28480469 -13.8359375 22.3203125 C-19.38354039 22.43979933 -24.37023492 21.9547006 -29.7734375 20.6875 C-32.27596848 20.12146367 -32.27596848 20.12146367 -36 20.25 Z M-26.1484375 43.15625 C-26.88320313 44.0121875 -27.61796875 44.868125 -28.375 45.75 C-29.54482422 47.10738281 -29.54482422 47.10738281 -30.73828125 48.4921875 C-33.61155393 51.99569442 -36.37133547 55.55956117 -39 59.25 C-37.89205078 59.19779297 -37.89205078 59.19779297 -36.76171875 59.14453125 C-30.1456714 58.96799123 -24.59056162 59.59131966 -18.27734375 61.59375 C-15.9145523 62.38844864 -15.9145523 62.38844864 -13 62.25 C-13 56.64 -13 51.03 -13 45.25 C-19.7635596 40.5583269 -19.7635596 40.5583269 -26.1484375 43.15625 Z " fill="#000000" transform="translate(432,15.75)"/>
<path d="M0 0 C5.04005593 1.62028465 9.84814456 3.59184631 14.70703125 5.68359375 C18.75072814 7.30011315 22.85765579 8.66079796 27 10 C27.02494747 14.80142856 27.04297577 19.60281836 27.05493164 24.40429688 C27.05992239 26.03353534 27.06671735 27.66276942 27.07543945 29.29199219 C27.12049453 37.93196627 27.10156149 46.41302461 26 55 C25.35538818 55.24580811 24.71077637 55.49161621 24.04663086 55.74487305 C18.02422787 58.05280999 12.40931722 60.8116849 6.76171875 63.92578125 C2.43156487 65.61007024 0.04487853 64.43569217 -4.12890625 62.6953125 C-5.82853516 61.91800781 -5.82853516 61.91800781 -7.5625 61.125 C-13.88900908 58.30178056 -20.20639177 56.41844567 -27 55 C-26.52006592 54.36553955 -26.04013184 53.7310791 -25.5456543 53.07739258 C-23.46623835 48.93728233 -23.42185417 45.33805516 -23.26953125 40.76171875 C-23.229384 39.88095169 -23.18923676 39.00018463 -23.14787292 38.09272766 C-23.02314527 35.29136651 -22.917566 32.48966061 -22.8125 29.6875 C-22.73108149 27.78314867 -22.64841321 25.87885034 -22.56445312 23.97460938 C-22.36181781 19.31689595 -22.17634661 14.65877982 -22 10 C-21.34845947 9.81969238 -20.69691895 9.63938477 -20.02563477 9.45361328 C-15.01349133 8.01760945 -10.48741882 6.48056502 -5.9375 3.875 C-5.01839844 3.35679688 -4.09929687 2.83859375 -3.15234375 2.3046875 C-1.09505745 1.17443858 -1.09505745 1.17443858 0 0 Z M-7 11 C-7 23.21 -7 35.42 -7 48 C1.80176644 52.2679824 1.80176644 52.2679824 11 54 C11 41.79 11 29.58 11 17 C6.05 15.02 6.05 15.02 1 13 C-1.475 12.01 -1.475 12.01 -4 11 C-4.99 11 -5.98 11 -7 11 Z " fill="#000000" transform="translate(516,25)"/>
<path d="M0 0 C3.96 0 7.92 0 12 0 C12 40.92 12 81.84 12 124 C8.04 124 4.08 124 0 124 C0 83.08 0 42.16 0 0 Z " fill="#000000" transform="translate(220,127)"/>
<path d="M0 0 C3.08702337 1.27738898 5.04468161 3.2880423 7.46484375 5.578125 C10.69557929 8.60531554 13.92039012 11.57829885 17.33984375 14.390625 C18.26796875 15.215625 19.19609375 16.040625 20.15234375 16.890625 C20.15234375 17.550625 20.15234375 18.210625 20.15234375 18.890625 C18.28808594 20.26342773 18.28808594 20.26342773 15.69921875 21.82421875 C14.30509766 22.6740332 14.30509766 22.6740332 12.8828125 23.54101562 C11.89925781 24.13076172 10.91570313 24.72050781 9.90234375 25.328125 C7.97946734 26.49183649 6.05755603 27.65714451 4.13671875 28.82421875 C2.84846191 29.5985022 2.84846191 29.5985022 1.53417969 30.38842773 C-0.86617041 31.849226 -0.86617041 31.849226 -3.03417969 33.58227539 C-4.84765625 34.890625 -4.84765625 34.890625 -6.84765625 34.890625 C-6.51765625 39.840625 -6.18765625 44.790625 -5.84765625 49.890625 C1.50003399 52.80858705 1.50003399 52.80858705 9.15234375 51.890625 C10.20421875 51.354375 11.25609375 50.818125 12.33984375 50.265625 C15.15234375 48.890625 15.15234375 48.890625 18.15234375 49.890625 C18.15234375 50.550625 18.15234375 51.210625 18.15234375 51.890625 C17.06695313 52.49390625 15.9815625 53.0971875 14.86328125 53.71875 C13.41789676 54.52591277 11.97258829 55.33321168 10.52734375 56.140625 C9.81449219 56.53636719 9.10164062 56.93210938 8.3671875 57.33984375 C7.31337891 57.92958984 7.31337891 57.92958984 6.23828125 58.53125 C5.54057617 58.91990234 4.84287109 59.30855469 4.12402344 59.70898438 C1.8881464 60.99736087 1.8881464 60.99736087 -0.99609375 63.3125 C-3.84765625 64.890625 -3.84765625 64.890625 -6.84375 64.26953125 C-7.83503906 63.81449219 -8.82632813 63.35945313 -9.84765625 62.890625 C-11.8679659 62.2015876 -13.88879878 61.51408244 -15.91015625 60.828125 C-16.91175781 60.48652344 -17.91335938 60.14492187 -18.9453125 59.79296875 C-21.57342287 58.97588464 -24.14062849 58.37242627 -26.84765625 57.890625 C-26.53828125 57.2925 -26.22890625 56.694375 -25.91015625 56.078125 C-24.36192385 52.89058772 -23.71777148 50.28883228 -23.64233398 46.78637695 C-23.62238876 45.96575272 -23.60244354 45.14512848 -23.58189392 44.29963684 C-23.56518143 43.41829575 -23.54846893 42.53695465 -23.53125 41.62890625 C-23.50007835 40.27021675 -23.50007835 40.27021675 -23.46827698 38.88407898 C-23.40289067 35.99050484 -23.34394721 33.09683993 -23.28515625 30.203125 C-23.24196065 28.24152707 -23.19834602 26.27993832 -23.15429688 24.31835938 C-23.04722043 19.50920761 -22.94592211 14.69996454 -22.84765625 9.890625 C-21.40350342 9.28335571 -21.40350342 9.28335571 -19.93017578 8.66381836 C-18.65520889 8.12368749 -17.38031013 7.5833958 -16.10546875 7.04296875 C-15.47229736 6.77722046 -14.83912598 6.51147217 -14.18676758 6.2376709 C-10.88548529 4.83435709 -7.76320785 3.35606372 -4.72265625 1.453125 C-1.84765625 -0.109375 -1.84765625 -0.109375 0 0 Z M-7.84765625 9.890625 C-7.84765625 17.150625 -7.84765625 24.410625 -7.84765625 31.890625 C-5.92953125 30.7975 -4.01140625 29.704375 -2.03515625 28.578125 C-0.95621094 27.96324219 0.12273438 27.34835938 1.234375 26.71484375 C3.63500287 25.21404962 5.23682649 23.90552058 7.15234375 21.890625 C5.03281358 19.88453448 2.90720934 17.88568897 0.77734375 15.890625 C0.1740625 15.31828125 -0.42921875 14.7459375 -1.05078125 14.15625 C-1.63085938 13.61484375 -2.2109375 13.0734375 -2.80859375 12.515625 C-3.34274902 12.01289062 -3.8769043 11.51015625 -4.42724609 10.9921875 C-5.81147779 9.68634819 -5.81147779 9.68634819 -7.84765625 9.890625 Z " fill="#000000" transform="translate(725.84765625,26.109375)"/>
<path d="M0 0 C3.48747695 2.09248617 6.24664573 4.67645929 9.16015625 7.49609375 C10.28486163 8.56938402 11.41112426 9.6410452 12.5390625 10.7109375 C13.06387207 11.21093262 13.58868164 11.71092773 14.12939453 12.22607422 C15.69785877 13.69689861 15.69785877 13.69689861 18 15.3125 C18.52722656 15.72371094 19.05445313 16.13492188 19.59765625 16.55859375 C19.59765625 17.21859375 19.59765625 17.87859375 19.59765625 18.55859375 C17.44213867 20.14672852 17.44213867 20.14672852 14.453125 22 C13.38384766 22.66580078 12.31457031 23.33160156 11.21289062 24.01757812 C10.65045654 24.36264404 10.08802246 24.70770996 9.50854492 25.06323242 C7.79833259 26.11300577 6.09541303 27.17462968 4.39257812 28.23632812 C-3.96958705 33.41434152 -3.96958705 33.41434152 -7.40234375 34.55859375 C-7.73234375 39.50859375 -8.06234375 44.45859375 -8.40234375 49.55859375 C-6.83484375 50.03296875 -5.26734375 50.50734375 -3.65234375 50.99609375 C-2.770625 51.26292969 -1.88890625 51.52976563 -0.98046875 51.8046875 C-0.1296875 52.05347656 0.72109375 52.30226562 1.59765625 52.55859375 C2.25765625 52.80609375 2.91765625 53.05359375 3.59765625 53.30859375 C6.55685707 53.67849385 8.25918169 52.51750766 10.84765625 51.12109375 C11.7396875 50.64800781 12.63171875 50.17492187 13.55078125 49.6875 C14.22625 49.31496094 14.90171875 48.94242188 15.59765625 48.55859375 C16.25765625 49.54859375 16.91765625 50.53859375 17.59765625 51.55859375 C16.51226563 52.161875 15.426875 52.76515625 14.30859375 53.38671875 C12.86320926 54.19388152 11.41790079 55.00118043 9.97265625 55.80859375 C9.25980469 56.20433594 8.54695312 56.60007813 7.8125 57.0078125 C4.51493869 58.85323672 1.44071307 60.67391453 -1.61328125 62.91796875 C-4.40234375 64.55859375 -4.40234375 64.55859375 -6.9765625 64.4296875 C-9.42206829 63.5515107 -11.82583777 62.64385075 -14.21484375 61.62109375 C-18.57111253 59.82503091 -22.80633913 58.57992811 -27.40234375 57.55859375 C-27.09296875 56.96046875 -26.78359375 56.36234375 -26.46484375 55.74609375 C-24.91661135 52.55855647 -24.27245898 49.95680103 -24.19702148 46.4543457 C-24.17707626 45.63372147 -24.15713104 44.81309723 -24.13658142 43.96760559 C-24.11986893 43.0862645 -24.10315643 42.2049234 -24.0859375 41.296875 C-24.05476585 39.9381855 -24.05476585 39.9381855 -24.02296448 38.55204773 C-23.95757817 35.65847359 -23.89863471 32.76480868 -23.83984375 29.87109375 C-23.79664815 27.90949582 -23.75303352 25.94790707 -23.70898438 23.98632812 C-23.60190793 19.17717636 -23.50060961 14.36793329 -23.40234375 9.55859375 C-22.30535156 9.08808594 -21.20835937 8.61757813 -20.078125 8.1328125 C-18.62361836 7.50409027 -17.16919569 6.87517375 -15.71484375 6.24609375 C-14.99361328 5.93736328 -14.27238281 5.62863281 -13.52929688 5.31054688 C-10.38804748 3.94790444 -7.45938445 2.59354228 -4.53295898 0.80053711 C-2.40234375 -0.44140625 -2.40234375 -0.44140625 0 0 Z M-8.40234375 9.55859375 C-8.40234375 16.81859375 -8.40234375 24.07859375 -8.40234375 31.55859375 C-6.48421875 30.46546875 -4.56609375 29.37234375 -2.58984375 28.24609375 C-1.51089844 27.63121094 -0.43195312 27.01632813 0.6796875 26.3828125 C3.04406456 24.90468119 4.77813343 23.63348819 6.59765625 21.55859375 C5.03998763 20.1158599 3.47629668 18.67962667 1.91015625 17.24609375 C1.04003906 16.44558594 0.16992188 15.64507812 -0.7265625 14.8203125 C-3.64383259 12.23167017 -3.64383259 12.23167017 -8.40234375 9.55859375 Z " fill="#000000" transform="translate(779.40234375,26.44140625)"/>
<path d="M0 0 C0 5.94 0 11.88 0 18 C5.28 18 10.56 18 16 18 C16 20.31 16 22.62 16 25 C10.72 25 5.44 25 0 25 C0.0194065 30.62408047 0.07108055 36.24659319 0.15258789 41.87011719 C0.17577476 43.78279069 0.19016523 45.69559199 0.19555664 47.60839844 C0.20484137 50.35953474 0.24581927 53.10865912 0.29296875 55.859375 C0.2890361 56.71368103 0.28510345 57.56798706 0.28105164 58.44818115 C0.38358426 62.62676006 0.44349973 64.37568271 3.3059082 67.58691406 C6.89711148 69.47054656 9.13015858 68.91055092 13 68 C13.33 68.99 13.66 69.98 14 71 C11.95368433 72.73172834 9.8918187 74.43373107 7.8125 76.125 C6.9452832 76.86556641 6.9452832 76.86556641 6.06054688 77.62109375 C4.33203125 79.0078125 4.33203125 79.0078125 1 81 C-1.6171875 80.4921875 -1.6171875 80.4921875 -4 79 C-4.81339844 78.525625 -5.62679688 78.05125 -6.46484375 77.5625 C-7.68880859 76.7890625 -7.68880859 76.7890625 -8.9375 76 C-12.54535309 73.78890917 -15.87563796 72.08535843 -20 71 C-19.78937424 70.45440933 -19.57874847 69.90881866 -19.36174011 69.34669495 C-17.34280374 63.78471626 -16.5376505 58.92142584 -16.48828125 53.02734375 C-16.46135445 51.81456505 -16.46135445 51.81456505 -16.43388367 50.57728577 C-16.38031456 48.03074138 -16.34605921 45.48437843 -16.3125 42.9375 C-16.27927956 41.19593856 -16.24478563 39.45440092 -16.20898438 37.71289062 C-16.12462007 33.47539263 -16.05755742 29.23794342 -16 25 C-17.98 25 -19.96 25 -22 25 C-21.45354896 21.08670547 -19.70064387 19.41281015 -16.875 16.75 C-13.21564572 13.21863586 -9.81855558 9.5834602 -6.50390625 5.73046875 C-1.52370203 0 -1.52370203 0 0 0 Z " fill="#000000" transform="translate(465,9)"/>
<path d="M0 0 C1.175625 0.886875 2.35125 1.77375 3.5625 2.6875 C7.33444328 5.51813836 11.1517752 8.2741741 15 11 C14.14051364 15.22906354 12.16741184 18.68222249 10.15625 22.46484375 C6.87775236 29.65317134 7.38830509 38.37592379 8.5 46.0625 C9.60057978 54.72956575 10.05542887 62.48785991 5 70 C0.47158901 75.05939723 -4.73888953 78.45310761 -11 81 C-11.99 80.67 -12.98 80.34 -14 80 C-13.59007812 79.46890625 -13.18015625 78.9378125 -12.7578125 78.390625 C-12.21898437 77.68421875 -11.68015625 76.9778125 -11.125 76.25 C-10.59132813 75.55390625 -10.05765625 74.8578125 -9.5078125 74.140625 C-4.09241123 66.45243875 -5.54023118 58.1187207 -7.07910156 49.23388672 C-7.21799805 48.4554541 -7.35689453 47.67702148 -7.5 46.875 C-9.64874326 34.65936941 -8.82535971 25.8517841 -5 14 C-7.33662221 12.38950353 -7.33662221 12.38950353 -10 11 C-12.78223378 11.69485264 -12.78223378 11.69485264 -15 13 C-15.33 12.01 -15.66 11.02 -16 10 C-8.08 5.05 -8.08 5.05 0 0 Z " fill="#000000" transform="translate(673,25)"/>
<path d="M0 0 C3.3 0 6.6 0 10 0 C6.17799117 5.18701198 2.24255674 10.15136373 -2 15 C-2.66 14.67 -3.32 14.34 -4 14 C-2.68 9.38 -1.36 4.76 0 0 Z " fill="#000000" transform="translate(679,5)"/>
<path d="M0 0 C1.98 0 3.96 0 6 0 C6 1.32 6 2.64 6 4 C6.2981424 5.34164079 6.62243192 6.67851173 7 8 C6.34 8 5.68 8 5 8 C4.34 7.01 3.68 6.02 3 5 C2.67 5.99 2.34 6.98 2 8 C1.34 8 0.68 8 0 8 C0 5.36 0 2.72 0 0 Z M2 1 C2 1.66 2 2.32 2 3 C2.99 3 3.98 3 5 3 C5 2.34 5 1.68 5 1 C4.01 1 3.02 1 2 1 Z " fill="#000000" transform="translate(799,22)"/>
<path d="M0 0 C2.56446873 2.31629434 2.94543266 3.56346131 3.375 7 C2.96644557 10.26843543 2.20409407 11.61223142 0 14 C-0.66 13.67 -1.32 13.34 -2 13 C-1.484375 12.46375 -0.96875 11.9275 -0.4375 11.375 C1.2978856 9.01548747 1.2978856 9.01548747 0.8125 5.875 C0.22389082 2.89845558 0.22389082 2.89845558 -2 1 C-4.21072977 0.75746187 -4.21072977 0.75746187 -6.625 0.875 C-7.85089844 0.90207031 -7.85089844 0.90207031 -9.1015625 0.9296875 C-10.04128906 0.96449219 -10.04128906 0.96449219 -11 1 C-8.60131664 -3.79736671 -4.02661254 -1.5099797 0 0 Z " fill="#000000" transform="translate(808,19)"/>
<path d="M0 0 C2.31 0 4.62 0 7 0 C7 0.33 7 0.66 7 1 C4.69 1 2.38 1 0 1 C0 0.67 0 0.34 0 0 Z " fill="#000000" transform="translate(799,33)"/>
<path d="M0 0 C1.32 1.32 2.64 2.64 4 4 C2.68 3.34 1.36 2.68 0 2 C0 1.34 0 0.68 0 0 Z " fill="#000000" transform="translate(795,29)"/>
<path d="M0 0 C0.33 0 0.66 0 1 0 C1 1.98 1 3.96 1 6 C0.67 6 0.34 6 0 6 C0 4.02 0 2.04 0 0 Z " fill="#000000" transform="translate(794,23)"/>
<path d="" fill="#000000" transform="translate(0,0)"/>
<path d="" fill="#000000" transform="translate(0,0)"/>
</svg>
