<?xml version="1.0" encoding="UTF-8" standalone="no"?>
<!-- Created with Inkscape (http://www.inkscape.org/) -->

<svg
   width="110.47819mm"
   height="30.530424mm"
   viewBox="0 0 110.47819 30.530424"
   version="1.1"
   id="svg1"
   xml:space="preserve"
   xmlns="http://www.w3.org/2000/svg"
   xmlns:svg="http://www.w3.org/2000/svg"><defs
     id="defs1" /><g
     id="layer1"
     transform="translate(-101.0753,-19.669739)"><path
       style="fill:#ffffff;stroke-width:0.264583"
       d="m 195.87237,19.669737 -79.07694,0.04179 -1.25884,0.153516 -2.17993,0.521957 -1.8729,0.644769 -1.10532,0.521957 -1.16673,0.675473 -0.64477,0.46055 -0.9518,0.675473 -0.76759,0.706176 -0.67547,0.64477 -1.01321,1.074616 -0.64477,0.798285 -0.79828,1.105321 -0.67548,1.19743 -0.52195,1.166725 -0.39915,0.997858 -0.41449,1.289539 -0.23027,0.951804 -0.12282,0.82899 -0.0921,0.491252 -0.10746,0.675473 -0.0768,2.425563 7.40131,-0.04041 -0.0597,12.521546 95.77056,-0.0163 V 37.66775 l 7.34303,0.01289 0.023,-2.325777 -0.18422,-1.281864 -0.22361,-1.23584 -0.52105,-1.628288 -0.83586,-2.073357 -0.53191,-0.922697 -0.74901,-1.161513 -1.09638,-1.378618 -1.28092,-1.346052 -1.2375,-1.096382 -1.5143,-1.031762 -2.25669,-1.212781 -2.71724,-0.890397 -1.71939,-0.322385 z"
       id="path1" /></g></svg>
