<?xml version="1.0" encoding="UTF-8" standalone="no"?>
<!-- Created with Inkscape (http://www.inkscape.org/) -->

<svg
   width="121.71675mm"
   height="38.157799mm"
   viewBox="0 0 121.71675 38.157799"
   version="1.1"
   id="svg5"
   xml:space="preserve"
   xmlns="http://www.w3.org/2000/svg"
   xmlns:svg="http://www.w3.org/2000/svg"><defs
     id="defs2" /><g
     id="layer1"
     transform="translate(-161.16494,14.649136)"><path
       style="opacity:1;fill:none;fill-opacity:0.0115607;stroke-width:0.264583"
       d="m 274.79013,23.508662 -105.26656,-0.261208 -0.0653,-18.2192124 -8.29333,0.065302 0.0333,-2.0806005 0.10389,-0.9581388 0.1039,-0.6349114 0.11543,-0.53101677 0.0346,-0.35785914 0.0808,-0.41557836 0.0693,-0.35785914 0.0923,-0.3232276 0.0577,-0.28859609 0.0923,-0.2885961 0.0808,-0.3001399 0.11544,-0.2308769 0.0577,-0.2539645 0.0924,-0.2655084 0.0923,-0.219333 0.1039,-0.2077892 0.10389,-0.2424207 0.0577,-0.1616139 0.0808,-0.1731576 0.10389,-0.1731576 0.0577,-0.2655083 0.0808,-0.1616139 0.35786,-0.6118238 0.28859,-0.5541044 0.4733,-0.7849812 0.35786,-0.60028 0.68109,-0.9235075 1.45452,-1.6276817 1.06203,-1.0735776 1.316,-1.0851216 1.1313,-0.681087 1.45452,-0.854244 0.92351,-0.473297 1.24674,-0.496386 1.29291,-0.404034 1.37371,-0.323228 1.62768,-0.265508 2.04326,-0.09235 83.86603,0.08081 1.24673,-0.03463 0.87733,0.08081 1.52379,0.277053 1.44298,0.277052 0.98123,0.369403 1.14285,0.438666 1.48915,0.715718 1.09667,0.60028 1.17745,0.761894 0.73882,0.565648 1.50069,1.2929105 1.29292,1.396805 0.86579,1.1082091 0.93504,1.4545241 0.60029,1.1197529 0.62335,1.2698227 0.58875,1.7084887 0.36942,1.43143659 0.24241,1.47761191 0.21934,1.916278 -0.0116,1.5699626 -8.17303,-0.011544 z"
       id="path506" /></g></svg>
